<?xml version="1.0" encoding="UTF-8"?>
<svg xmlns="http://www.w3.org/2000/svg" xmlns:xlink="http://www.w3.org/1999/xlink" style="margin:auto;background:#ffffff;display:block;z-index:1;position:relative" width="1920" height="1007" preserveAspectRatio="xMidYMid" viewBox="0 0 1920 1007">
<g transform="translate(960,503.5) scale(1,1) translate(-960,-503.5)"><defs>
  <path id="path-1l95mhmma7m-1" d="M-35 -35L35 -35L35 35L-35 35Z" fill="none" stroke="inherit" stroke-width="4.333333333333334" transform="scale(0.3)"></path>
  <path id="path-1l95mhmma7m-2" d="M0 -37A37 37 0 0 1 0 37A37 37 0 0 1 0 -37" fill="none" stroke="inherit" stroke-width="4.333333333333334" transform="scale(0.3)"></path>
  <path id="path-1l95mhmma7m-3" d="M0 -34.641L40 34.641L-40 34.641Z" fill="none" stroke="inherit" stroke-width="4.333333333333334" transform="scale(0.3)"></path>
</defs><path id="path0" d="M 139.14472745648087 986.1252961010844
c 0 46.094099743369526 -11.278343554228712 13.239794607138057 -24.51813816136677 13.239794607138057
S 90.10845113374731 1032.2193958444539 90.10845113374731 986.1252961010844
s 11.278343554228712 -13.239794607138057 24.51813816136677 -13.239794607138057
S 139.14472745648087 940.0311963577149 139.14472745648087 986.1252961010844
z" fill="none" stroke="none"></path>
<use xlink:href="#path-1l95mhmma7m-1" x="0" y="0" stroke="#3c6d9f">
  <animateMotion begin="-4.99091606790935s" dur="16.577679273106657s" keyPoints="1;0" keyTimes="0;1" repeatCount="indefinite" calcMode="linear">
    <mpath xlink:href="#path0"></mpath>
  </animateMotion>
</use><path id="path1" d="M 158.91181775205266 843.8536029832366
c 0 29.52856857415433 -7.22507528942074 8.481610122363477 -15.706685411784218 8.481610122363477
S 127.49844692848423 873.3821715573908 127.49844692848423 843.8536029832366
s 7.22507528942074 -8.481610122363477 15.706685411784218 -8.481610122363477
S 158.91181775205266 814.3250344090823 158.91181775205266 843.8536029832366
z" fill="none" stroke="none"></path>
<use xlink:href="#path-1l95mhmma7m-2" x="0" y="0" stroke="#3c6d9f">
  <animateMotion begin="-3.444465352513718s" dur="17.353254139532122s" keyPoints="1;0" keyTimes="0;1" repeatCount="indefinite" calcMode="linear">
    <mpath xlink:href="#path1"></mpath>
  </animateMotion>
</use><path id="path2" d="M 312.1098254791035 280.9231020818778
c 0 50.2591819778725 -12.297459420117738 14.436148014920827 -26.733607435038564 14.436148014920827
S 258.6426106090264 331.1822840597503 258.6426106090264 280.9231020818778
s 12.297459420117738 -14.436148014920827 26.733607435038564 -14.436148014920827
S 312.1098254791035 230.66392010400529 312.1098254791035 280.9231020818778
z" fill="none" stroke="none"></path>
<use xlink:href="#path-1l95mhmma7m-2" x="0" y="0" stroke="#3889db">
  <animateMotion begin="-2.4068312371198797s" dur="18.008698454147854s" keyPoints="1;0" keyTimes="0;1" repeatCount="indefinite" calcMode="linear">
    <mpath xlink:href="#path2"></mpath>
  </animateMotion>
</use><path id="path3" d="M 424.4949911691184 102.34439262761266
c 0 47.867646074735845 -11.712296379988556 13.749217489551786 -25.46151386954034 13.749217489551786
S 373.5719634300377 150.2120387023485 373.5719634300377 102.34439262761266
s 11.712296379988556 -13.749217489551786 25.46151386954034 -13.749217489551786
S 424.4949911691184 54.47674655287682 424.4949911691184 102.34439262761266
z" fill="none" stroke="none"></path>
<use xlink:href="#path-1l95mhmma7m-3" x="0" y="0" stroke="#3c6d9f">
  <animateMotion begin="-0.9429342040576727s" dur="18.274967743246982s" keyPoints="1;0" keyTimes="0;1" repeatCount="indefinite" calcMode="linear">
    <mpath xlink:href="#path3"></mpath>
  </animateMotion>
</use><path id="path4" d="M 521.0492023401766 97.54122231248522
c 0 54.0056514169858 -13.21414875096461 15.512261577219327 -28.726410328183935 15.512261577219327
S 463.5963816838087 151.54687372947103 463.5963816838087 97.54122231248522
s 13.21414875096461 -15.512261577219327 28.726410328183935 -15.512261577219327
S 521.0492023401766 43.53557089549942 521.0492023401766 97.54122231248522
z" fill="none" stroke="none"></path>
<use xlink:href="#path-1l95mhmma7m-1" x="0" y="0" stroke="#3c6d9f">
  <animateMotion begin="-1.5044178699465593s" dur="15.636530230055834s" keyPoints="1;0" keyTimes="0;1" repeatCount="indefinite" calcMode="linear">
    <mpath xlink:href="#path4"></mpath>
  </animateMotion>
</use><path id="path5" d="M 600.3856776842447 615.6684706854343
c 0 26.663190168571003 -6.523972062522692 7.65857589948316 -14.182547962005852 7.65857589948316
S 572.020581760233 642.3316608540052 572.020581760233 615.6684706854343
s 6.523972062522692 -7.65857589948316 14.182547962005852 -7.65857589948316
S 600.3856776842447 589.0052805168633 600.3856776842447 615.6684706854343
z" fill="none" stroke="none"></path>
<use xlink:href="#path-1l95mhmma7m-2" x="0" y="0" stroke="#3c6d9f">
  <animateMotion begin="-1.936091456256912s" dur="13.233247046263259s" keyPoints="1;0" keyTimes="0;1" repeatCount="indefinite" calcMode="linear">
    <mpath xlink:href="#path5"></mpath>
  </animateMotion>
</use><path id="path6" d="M 695.0717883842417 355.8542133061496
c 0 42.111444297794236 -10.303864030311354 12.095840383408982 -22.399704413720336 12.095840383408982
S 650.2723795568011 397.9656576039438 650.2723795568011 355.8542133061496
s 10.303864030311354 -12.095840383408982 22.399704413720336 -12.095840383408982
S 695.0717883842417 313.74276900835537 695.0717883842417 355.8542133061496
z" fill="none" stroke="none"></path>
<use xlink:href="#path-1l95mhmma7m-3" x="0" y="0" stroke="#3c6d9f">
  <animateMotion begin="-3.6834617691388747s" dur="18.477656517059103s" keyPoints="1;0" keyTimes="0;1" repeatCount="indefinite" calcMode="linear">
    <mpath xlink:href="#path6"></mpath>
  </animateMotion>
</use><path id="path7" d="M 842.7223007338094 536.3495292330789
c 0 28.858523340217065 -7.061128051329707 8.28915032112618 -15.350278372455886 8.28915032112618
S 812.0217439888976 565.208052573296 812.0217439888976 536.3495292330789
s 7.061128051329707 -8.28915032112618 15.350278372455886 -8.28915032112618
S 842.7223007338094 507.49100589286184 842.7223007338094 536.3495292330789
z" fill="none" stroke="none"></path>
<use xlink:href="#path-1l95mhmma7m-1" x="0" y="0" stroke="#3889db">
  <animateMotion begin="-4.697628043839382s" dur="16.224794878243564s" keyPoints="0;1" keyTimes="0;1" repeatCount="indefinite" calcMode="linear">
    <mpath xlink:href="#path7"></mpath>
  </animateMotion>
</use><path id="path8" d="M 908.5686363138718 83.57739032260437
c 0 48.08746372956057 -11.766081550849925 13.812356603171654 -25.57843815402158 13.812356603171654
S 857.4117600058287 131.66485405216494 857.4117600058287 83.57739032260437
s 11.766081550849925 -13.812356603171654 25.57843815402158 -13.812356603171654
S 908.5686363138718 35.489926593043805 908.5686363138718 83.57739032260437
z" fill="none" stroke="none"></path>
<use xlink:href="#path-1l95mhmma7m-1" x="0" y="0" stroke="#b6611b">
  <animateMotion begin="-1.8359146700855145s" dur="19.27442227335517s" keyPoints="1;0" keyTimes="0;1" repeatCount="indefinite" calcMode="linear">
    <mpath xlink:href="#path8"></mpath>
  </animateMotion>
</use><path id="path9" d="M 1081.1117454594532 146.01117548829328
c 0 56.14653779709638 -13.737982652481028 16.127197026825556 -29.865179679306586 16.127197026825556
S 1021.3813861008401 202.15771328538966 1021.3813861008401 146.01117548829328
s 13.737982652481028 -16.127197026825556 29.865179679306586 -16.127197026825556
S 1081.1117454594532 89.86463769119689 1081.1117454594532 146.01117548829328
z" fill="none" stroke="none"></path>
<use xlink:href="#path-1l95mhmma7m-2" x="0" y="0" stroke="#3889db">
  <animateMotion begin="-3.522737698203424s" dur="13.021204148611105s" keyPoints="1;0" keyTimes="0;1" repeatCount="indefinite" calcMode="linear">
    <mpath xlink:href="#path9"></mpath>
  </animateMotion>
</use><path id="path10" d="M 1172.917566723115 982.6154403274426
c 0 40.19019234899589 -9.833770468371334 11.54399141939244 -21.377761887763775 11.54399141939244
S 1130.1620429475872 1022.8056326764384 1130.1620429475872 982.6154403274426
s 9.833770468371334 -11.54399141939244 21.377761887763775 -11.54399141939244
S 1172.917566723115 942.4252479784467 1172.917566723115 982.6154403274426
z" fill="none" stroke="none"></path>
<use xlink:href="#path-1l95mhmma7m-2" x="0" y="0" stroke="#3889db">
  <animateMotion begin="-1.0386185430281347s" dur="14.80472429181415s" keyPoints="0;1" keyTimes="0;1" repeatCount="indefinite" calcMode="linear">
    <mpath xlink:href="#path10"></mpath>
  </animateMotion>
</use><path id="path11" d="M 1225.7685688914953 63.19981670829777
c 0 27.12866763087712 -6.637865484150784 7.792276872698747 -14.430142356849531 7.792276872698747
S 1196.9082841777963 90.32848433917489 1196.9082841777963 63.19981670829777
s 6.637865484150784 -7.792276872698747 14.430142356849531 -7.792276872698747
S 1225.7685688914953 36.07114907742064 1225.7685688914953 63.19981670829777
z" fill="none" stroke="none"></path>
<use xlink:href="#path-1l95mhmma7m-2" x="0" y="0" stroke="#b6611b">
  <animateMotion begin="-3.9853414089163017s" dur="17.065222284699697s" keyPoints="0;1" keyTimes="0;1" repeatCount="indefinite" calcMode="linear">
    <mpath xlink:href="#path11"></mpath>
  </animateMotion>
</use><path id="path12" d="M 1306.3142523042184 755.9645926777221
c 0 33.89892294776429 -8.294417317006156 9.736924676485488 -18.031341993491644 9.736924676485488
S 1270.251568317235 789.8635156254863 1270.251568317235 755.9645926777221
s 8.294417317006156 -9.736924676485488 18.031341993491644 -9.736924676485488
S 1306.3142523042184 722.0656697299578 1306.3142523042184 755.9645926777221
z" fill="none" stroke="none"></path>
<use xlink:href="#path-1l95mhmma7m-2" x="0" y="0" stroke="#b6611b">
  <animateMotion begin="-4.337684091701587s" dur="17.11022962947784s" keyPoints="1;0" keyTimes="0;1" repeatCount="indefinite" calcMode="linear">
    <mpath xlink:href="#path12"></mpath>
  </animateMotion>
</use><path id="path13" d="M 1427.3633319836567 869.0659670384457
c 0 51.94294092149524 -12.709442991429686 14.919780902982676 -27.629223894412362 14.919780902982676
S 1372.1048841948318 921.008907959941 1372.1048841948318 869.0659670384457
s 12.709442991429686 -14.919780902982676 27.629223894412362 -14.919780902982676
S 1427.3633319836567 817.1230261169504 1427.3633319836567 869.0659670384457
z" fill="none" stroke="none"></path>
<use xlink:href="#path-1l95mhmma7m-1" x="0" y="0" stroke="#3c6d9f">
  <animateMotion begin="-4.20923918130443s" dur="11.554957022663723s" keyPoints="0;1" keyTimes="0;1" repeatCount="indefinite" calcMode="linear">
    <mpath xlink:href="#path13"></mpath>
  </animateMotion>
</use><path id="path14" d="M 1524.0878973576653 924.6501589477459
c 0 19.975095752055488 -4.887523428694427 5.737527503249981 -10.625050931944408 5.737527503249981
S 1502.8377954937766 944.6252546998014 1502.8377954937766 924.6501589477459
s 4.887523428694427 -5.737527503249981 10.625050931944408 -5.737527503249981
S 1524.0878973576653 904.6750631956904 1524.0878973576653 924.6501589477459
z" fill="none" stroke="none"></path>
<use xlink:href="#path-1l95mhmma7m-2" x="0" y="0" stroke="#3c6d9f">
  <animateMotion begin="-4.566161636969236s" dur="14.05725661011282s" keyPoints="0;1" keyTimes="0;1" repeatCount="indefinite" calcMode="linear">
    <mpath xlink:href="#path14"></mpath>
  </animateMotion>
</use><path id="path15" d="M 1700.436498296619 801.4152135947699
c 0 27.836464306018947 -6.811049777004635 7.995580173005442 -14.806629950010077 7.995580173005442
S 1670.8232383965988 829.2516779007888 1670.8232383965988 801.4152135947699
s 6.811049777004635 -7.995580173005442 14.806629950010077 -7.995580173005442
S 1700.436498296619 773.5787492887509 1700.436498296619 801.4152135947699
z" fill="none" stroke="none"></path>
<use xlink:href="#path-1l95mhmma7m-2" x="0" y="0" stroke="#b6611b">
  <animateMotion begin="-2.727827237110081s" dur="15.164922348172823s" keyPoints="1;0" keyTimes="0;1" repeatCount="indefinite" calcMode="linear">
    <mpath xlink:href="#path15"></mpath>
  </animateMotion>
</use><path id="path16" d="M 1747.5067408001796 116.91408025523735
c 0 21.136741903119432 -5.1717559975717755 6.0711918232364335 -11.242947820808208 6.0711918232364335
S 1725.0208451585631 138.0508221583568 1725.0208451585631 116.91408025523735
s 5.1717559975717755 -6.0711918232364335 11.242947820808208 -6.0711918232364335
S 1747.5067408001796 95.77733835211792 1747.5067408001796 116.91408025523735
z" fill="none" stroke="none"></path>
<use xlink:href="#path-1l95mhmma7m-1" x="0" y="0" stroke="#3c6d9f">
  <animateMotion begin="-2.521747024733829s" dur="10.682619217523568s" keyPoints="1;0" keyTimes="0;1" repeatCount="indefinite" calcMode="linear">
    <mpath xlink:href="#path16"></mpath>
  </animateMotion>
</use><path id="path17" d="M 1872.8360696822156 773.3014885146016
c 0 25.488231566138246 -6.236482191714677 7.321087790273752 -13.55756998198843 7.321087790273752
S 1845.7209297182385 798.7897200807398 1845.7209297182385 773.3014885146016
s 6.236482191714677 -7.321087790273752 13.55756998198843 -7.321087790273752
S 1872.8360696822156 747.8132569484634 1872.8360696822156 773.3014885146016
z" fill="none" stroke="none"></path>
<use xlink:href="#path-1l95mhmma7m-1" x="0" y="0" stroke="#3c6d9f">
  <animateMotion begin="-0.7425545761725771s" dur="18.36853792049205s" keyPoints="0;1" keyTimes="0;1" repeatCount="indefinite" calcMode="linear">
    <mpath xlink:href="#path17"></mpath>
  </animateMotion>
</use></g>
</svg>